<svg width="60" height="60" viewBox="0 0 60 60" fill="none" xmlns="http://www.w3.org/2000/svg">
<rect width="60" height="60" fill="black"/>
<path d="M14.584 42C14.488 42 14.44 41.94 14.44 41.82L14.476 17.088C14.476 16.992 14.524 16.944 14.62 16.944H26.176C26.272 16.944 26.32 17.004 26.32 17.124V21.156C26.32 21.252 26.272 21.3 26.176 21.3H18.796V26.916H26.176C26.272 26.916 26.32 26.964 26.32 27.06L26.356 31.128C26.356 31.224 26.308 31.272 26.212 31.272H18.796V37.572H26.212C26.308 37.572 26.356 37.632 26.356 37.752V41.856C26.356 41.952 26.308 42 26.212 42H14.584ZM31.8049 42C31.7089 42 31.6609 41.94 31.6609 41.82L31.6969 17.088C31.6969 16.992 31.7569 16.944 31.8769 16.944H35.8729C35.9929 16.944 36.0529 16.992 36.0529 17.088L36.0169 26.88H41.4169V17.088C41.4169 16.992 41.4649 16.944 41.5609 16.944H45.5569C45.6769 16.944 45.7369 16.992 45.7369 17.088L45.8089 41.82C45.8089 41.94 45.7489 42 45.6289 42H41.5969C41.4769 42 41.4169 41.94 41.4169 41.82V31.236H36.0169V41.82C36.0169 41.94 35.9689 42 35.8729 42H31.8049Z" fill="white"/>
</svg>
